# xmcd CD database file
#
# Track frame offsets:
#	150
#	21802
#	51470
#	74370
#	96497
#	111475
#	130730
#	148267
#	169295
#	196037
#
# Disc length: 2920 seconds
#
# Revision: 0
# Processed by: cddbd v1.5.1PL0 Copyright (c) Steve Scherf et al.
# Submitted via: CDex 1.51
#
DISCID=9a0b660a
DTITLE=Mal Waldron - Mal Waldron
DYEAR=2005
DGENRE=Jazz
TTITLE0=Django
TTITLE1=The Seagulls Of Kristiansund
TTITLE2=My Foolish Heart
TTITLE3=My One And Only Love
TTITLE4=When Sunny Gets Blue
TTITLE5=I Should Care
TTITLE6=Remember
TTITLE7=I Didn't Know What Time It Was
TTITLE8=You Don't Know What Love Is
TTITLE9=Left Alone
EXTD=YEAR: 2005
EXTT0=
EXTT1=
EXTT2=
EXTT3=
EXTT4=
EXTT5=
EXTT6=
EXTT7=
EXTT8=
EXTT9=
PLAYORDER=
